<svg xmlns="http://www.w3.org/2000/svg" xmlns:xlink="http://www.w3.org/1999/xlink" viewBox="0 0 1517.64 506"><defs><style>.cls-1{fill:url(#linear-gradient);}.cls-2{fill:#fff;}.cls-3{fill:url(#linear-gradient-2);}.cls-4{fill:#f9951c;}</style><linearGradient id="linear-gradient" x1="402.53" y1="470.02" x2="110.05" y2="45.54" gradientUnits="userSpaceOnUse"><stop offset="0" stop-color="#fdcf18"/><stop offset="1" stop-color="#f9951c"/></linearGradient><linearGradient id="linear-gradient-2" x1="252.45" y1="288.38" x2="256.95" y2="-1.11" gradientUnits="userSpaceOnUse"><stop offset="0" stop-color="#fdcf18" stop-opacity="0"/><stop offset="1" stop-color="#f9951c"/></linearGradient></defs><title>Asset 1</title><g id="Layer_2" data-name="Layer 2"><g id="Layer_2-2" data-name="Layer 2"><circle class="cls-1" cx="253" cy="253" r="253"/><path class="cls-2" d="M389.37,48.51q-11.64,0-18.06,10t-6.42,28.74q0,18.72,6.42,28.74t18.06,10q11.76,0,18.12-10t6.36-28.74q0-18.72-6.36-28.74T389.37,48.51Zm13.68,50.34a38.15,38.15,0,0,1-2.4,9.54,17,17,0,0,1-4.44,6.48,10.95,10.95,0,0,1-13.68,0,16.92,16.92,0,0,1-4.44-6.48,38.15,38.15,0,0,1-2.4-9.54,93.52,93.52,0,0,1,0-23.16,38.2,38.2,0,0,1,2.4-9.54,16.94,16.94,0,0,1,4.44-6.48,10.95,10.95,0,0,1,13.68,0,17,17,0,0,1,4.44,6.48,38.2,38.2,0,0,1,2.4,9.54,93.52,93.52,0,0,1,0,23.16Z"/><path class="cls-2" d="M389.61,78a6.14,6.14,0,0,0-5,2.4A8.59,8.59,0,0,0,382.65,86a8.1,8.1,0,0,0,1.92,5.4,6.26,6.26,0,0,0,5,2.28,6,6,0,0,0,4.86-2.28,8.28,8.28,0,0,0,1.86-5.4,8.77,8.77,0,0,0-1.86-5.52A5.87,5.87,0,0,0,389.61,78Z"/><path class="cls-2" d="M390.93,170.19a49.21,49.21,0,0,1-10.68,9.3,69.17,69.17,0,0,1-11.88,6.06l3.12,7.44a42.91,42.91,0,0,0,4.68-1.8q2.4-1.08,4.62-2.28t4.08-2.46a28.65,28.65,0,0,0,3.18-2.46v52.08H372v8.4h40v-8.4h-14V170.19Z"/><path class="cls-2" d="M389.37,288.51q-11.64,0-18.06,10t-6.42,28.74q0,18.72,6.42,28.74t18.06,10q11.76,0,18.12-10t6.36-28.74q0-18.72-6.36-28.74T389.37,288.51Zm13.68,50.34a38.15,38.15,0,0,1-2.4,9.54,17,17,0,0,1-4.44,6.48,10.95,10.95,0,0,1-13.68,0,16.92,16.92,0,0,1-4.44-6.48,38.15,38.15,0,0,1-2.4-9.54,93.52,93.52,0,0,1,0-23.16,38.2,38.2,0,0,1,2.4-9.54,16.94,16.94,0,0,1,4.44-6.48,10.95,10.95,0,0,1,13.68,0,17,17,0,0,1,4.44,6.48,38.2,38.2,0,0,1,2.4,9.54,93.52,93.52,0,0,1,0,23.16Z"/><path class="cls-2" d="M389.61,318a6.14,6.14,0,0,0-5,2.4,8.59,8.59,0,0,0-1.92,5.52,8.1,8.1,0,0,0,1.92,5.4,6.26,6.26,0,0,0,5,2.28,6,6,0,0,0,4.86-2.28,8.28,8.28,0,0,0,1.86-5.4,8.77,8.77,0,0,0-1.86-5.52A5.87,5.87,0,0,0,389.61,318Z"/><path class="cls-2" d="M389.61,438a6.14,6.14,0,0,0-5,2.4,8.59,8.59,0,0,0-1.92,5.52,8.1,8.1,0,0,0,1.92,5.4,6.26,6.26,0,0,0,5,2.28,6,6,0,0,0,4.86-2.28,8.28,8.28,0,0,0,1.86-5.4,8.77,8.77,0,0,0-1.86-5.52A5.87,5.87,0,0,0,389.61,438Z"/><path class="cls-2" d="M52.55,170.19a49.21,49.21,0,0,1-10.68,9.3A69.17,69.17,0,0,1,30,185.55L33.11,193a42.83,42.83,0,0,0,4.68-1.8q2.4-1.08,4.62-2.28t4.08-2.46A28.65,28.65,0,0,0,49.67,184v52.08H33.59v8.4h40v-8.4h-14V170.19Z"/><path class="cls-2" d="M51,288.51q-11.64,0-18.06,10t-6.42,28.74q0,18.72,6.42,28.74T51,366q11.76,0,18.12-10t6.36-28.74q0-18.72-6.36-28.74T51,288.51Zm13.68,50.34a38.2,38.2,0,0,1-2.4,9.54,17,17,0,0,1-4.44,6.48,10,10,0,0,1-6.84,2.4,10,10,0,0,1-6.84-2.4,16.93,16.93,0,0,1-4.44-6.48,38.11,38.11,0,0,1-2.4-9.54,93.39,93.39,0,0,1,0-23.16,38.17,38.17,0,0,1,2.4-9.54,16.94,16.94,0,0,1,4.44-6.48,10.05,10.05,0,0,1,6.84-2.4,10.06,10.06,0,0,1,6.84,2.4,17,17,0,0,1,4.44,6.48,38.26,38.26,0,0,1,2.4,9.54,88.57,88.57,0,0,1,.72,11.58A88.57,88.57,0,0,1,64.67,338.85Z"/><path class="cls-2" d="M51.23,318a6.14,6.14,0,0,0-5,2.4,8.58,8.58,0,0,0-1.92,5.52,8.11,8.11,0,0,0,1.92,5.4,6.27,6.27,0,0,0,5,2.28,6,6,0,0,0,4.86-2.28,8.27,8.27,0,0,0,1.86-5.4,8.76,8.76,0,0,0-1.86-5.52A5.87,5.87,0,0,0,51.23,318Z"/><path class="cls-2" d="M135.83,93.63a6,6,0,0,0,4.86-2.28,8.28,8.28,0,0,0,1.86-5.4,8.77,8.77,0,0,0-1.86-5.52,5.87,5.87,0,0,0-4.86-2.4,6.14,6.14,0,0,0-5,2.4A8.59,8.59,0,0,0,128.87,86a8.11,8.11,0,0,0,1.92,5.4A6.26,6.26,0,0,0,135.83,93.63Z"/><path class="cls-2" d="M135.59,126q11.76,0,18.12-10t6.36-28.74q0-18.72-6.36-28.74t-18.12-10q-11.64,0-18.06,10t-6.42,28.74q0,18.72,6.42,28.74T135.59,126ZM121.91,75.69a38.16,38.16,0,0,1,2.4-9.54,16.94,16.94,0,0,1,4.44-6.48,10.95,10.95,0,0,1,13.68,0,17,17,0,0,1,4.44,6.48,38.25,38.25,0,0,1,2.4,9.54,93.52,93.52,0,0,1,0,23.16,38.19,38.19,0,0,1-2.4,9.54,17,17,0,0,1-4.44,6.48,10.95,10.95,0,0,1-13.68,0,16.92,16.92,0,0,1-4.44-6.48,38.11,38.11,0,0,1-2.4-9.54,93.52,93.52,0,0,1,0-23.16Z"/><path class="cls-2" d="M135.71,197.91a5.82,5.82,0,0,0-4.92,2.4A9.14,9.14,0,0,0,129,206a8.88,8.88,0,0,0,1.8,5.58,5.87,5.87,0,0,0,4.92,2.34,5.8,5.8,0,0,0,4.74-2.34,8.69,8.69,0,0,0,1.86-5.58,9,9,0,0,0-1.86-5.64A5.75,5.75,0,0,0,135.71,197.91Z"/><path class="cls-2" d="M135.59,168.51q-12.36,0-19.08,9.6t-6.72,29q0,19.68,6.6,29.28t19.2,9.6q12.6,0,19.2-9.6t6.6-29.28q0-19.56-6.6-29.1T135.59,168.51Zm9.3,58.14q-3.18,6.66-9.3,6.66t-9.24-6.66q-3.24-6.66-3.24-19.5t3.24-19.38q3.24-6.66,9.24-6.66t9.3,6.66q3.18,6.66,3.18,19.38T144.89,226.65Z"/><path class="cls-2" d="M287.38,116.07v8.4h40v-8.4h-14V50.19h-7a49.25,49.25,0,0,1-10.68,9.3,69.17,69.17,0,0,1-11.88,6.06L286.9,73a43.13,43.13,0,0,0,4.68-1.8q2.4-1.08,4.62-2.28t4.08-2.46A28.53,28.53,0,0,0,303.46,64v52.08Z"/><path class="cls-2" d="M304.78,246q11.76,0,18.12-10t6.36-28.74q0-18.72-6.36-28.74t-18.12-10q-11.64,0-18.06,10t-6.42,28.74q0,18.72,6.42,28.74T304.78,246ZM291.1,195.69a38.16,38.16,0,0,1,2.4-9.54,17,17,0,0,1,4.44-6.48,10.95,10.95,0,0,1,13.68,0,17,17,0,0,1,4.44,6.48,38.25,38.25,0,0,1,2.4,9.54,93.39,93.39,0,0,1,0,23.16,38.19,38.19,0,0,1-2.4,9.54,17,17,0,0,1-4.44,6.48,10.95,10.95,0,0,1-13.68,0,16.93,16.93,0,0,1-4.44-6.48,38.11,38.11,0,0,1-2.4-9.54,93.39,93.39,0,0,1,0-23.16Z"/><path class="cls-2" d="M305,213.63a6,6,0,0,0,4.86-2.28,8.27,8.27,0,0,0,1.86-5.4,8.77,8.77,0,0,0-1.86-5.52A5.87,5.87,0,0,0,305,198a6.14,6.14,0,0,0-5,2.4,8.58,8.58,0,0,0-1.92,5.52,8.1,8.1,0,0,0,1.92,5.4A6.26,6.26,0,0,0,305,213.63Z"/><path class="cls-2" d="M315.1,290.19H305a37.13,37.13,0,0,1-5.16,4.68,73.58,73.58,0,0,1-6.36,4.32q-3.36,2-6.72,3.72a65.47,65.47,0,0,1-6.24,2.76l4.8,12.24q3-1.08,7.32-2.94a41,41,0,0,0,7.68-4.26v41.52h-15.6v12.24h45.12V352.23H315.1Z"/><path class="cls-2" d="M202.78,116.07v8.4h40v-8.4h-14V50.19h-7a49.25,49.25,0,0,1-10.68,9.3,69.17,69.17,0,0,1-11.88,6.06L202.3,73a43.13,43.13,0,0,0,4.68-1.8q2.4-1.08,4.62-2.28t4.08-2.46A28.53,28.53,0,0,0,218.86,64v52.08Z"/><path class="cls-2" d="M220.18,246q11.76,0,18.12-10t6.36-28.74q0-18.72-6.36-28.74t-18.12-10q-11.64,0-18.06,10t-6.42,28.74q0,18.72,6.42,28.74T220.18,246ZM206.5,195.69a38.15,38.15,0,0,1,2.4-9.54,17,17,0,0,1,4.44-6.48,10.95,10.95,0,0,1,13.68,0,17,17,0,0,1,4.44,6.48,38.23,38.23,0,0,1,2.4,9.54,93.39,93.39,0,0,1,0,23.16,38.19,38.19,0,0,1-2.4,9.54,17,17,0,0,1-4.44,6.48,10.95,10.95,0,0,1-13.68,0,16.93,16.93,0,0,1-4.44-6.48,38.11,38.11,0,0,1-2.4-9.54,93.39,93.39,0,0,1,0-23.16Z"/><path class="cls-2" d="M220.42,213.63a6,6,0,0,0,4.86-2.28,8.27,8.27,0,0,0,1.86-5.4,8.76,8.76,0,0,0-1.86-5.52,5.87,5.87,0,0,0-4.86-2.4,6.14,6.14,0,0,0-5,2.4,8.58,8.58,0,0,0-1.92,5.52,8.11,8.11,0,0,0,1.92,5.4A6.26,6.26,0,0,0,220.42,213.63Z"/><path class="cls-2" d="M202.78,356.07v8.4h40v-8.4h-14V290.19h-7a49.18,49.18,0,0,1-10.68,9.3,69.17,69.17,0,0,1-11.88,6.06L202.3,313a42.62,42.62,0,0,0,4.68-1.8q2.4-1.08,4.62-2.28t4.08-2.46a28.53,28.53,0,0,0,3.18-2.46v52.08Z"/><path class="cls-2" d="M230.5,410.19H220.42a37.13,37.13,0,0,1-5.16,4.68,73.58,73.58,0,0,1-6.36,4.32q-3.36,2-6.72,3.72a65.47,65.47,0,0,1-6.24,2.76l4.8,12.24q3-1.08,7.32-2.94a41,41,0,0,0,7.68-4.26v41.52h-15.6v12.24h45.12V472.23H230.5Z"/><path class="cls-2" d="M456.57,236.07v8.4h40v-8.4h-14V170.19h-7a49.21,49.21,0,0,1-10.68,9.3A69.18,69.18,0,0,1,453,185.55l3.12,7.44a43,43,0,0,0,4.68-1.8q2.4-1.08,4.62-2.28a47.53,47.53,0,0,0,4.08-2.46,28.67,28.67,0,0,0,3.18-2.46v52.08Z"/><path class="cls-2" d="M474.09,317.91a5.81,5.81,0,0,0-4.92,2.4,9.14,9.14,0,0,0-1.8,5.64,8.87,8.87,0,0,0,1.8,5.58,5.87,5.87,0,0,0,4.92,2.34,5.8,5.8,0,0,0,4.74-2.34,8.7,8.7,0,0,0,1.86-5.58,9,9,0,0,0-1.86-5.64A5.75,5.75,0,0,0,474.09,317.91Z"/><path class="cls-2" d="M65.3,83.36c.05,1.28.09,2.58.09,3.91a88.55,88.55,0,0,1-.72,11.58,38.19,38.19,0,0,1-2.4,9.54,17,17,0,0,1-4.44,6.48,10,10,0,0,1-6.84,2.4,10,10,0,0,1-6.84-2.4,14.41,14.41,0,0,1-1.83-2q-2.67,4-5.19,8.1A20.06,20.06,0,0,0,51,126q11.76,0,18.12-10t6.36-28.74a82.84,82.84,0,0,0-1-13.51Q69.76,78.44,65.3,83.36Z"/><path class="cls-2" d="M74.12,431.92a39,39,0,0,0-5-13.39q-5.66-8.91-15.58-9.89A254.44,254.44,0,0,0,74.12,431.92Z"/><path class="cls-2" d="M455.91,116q5.81,9.07,15.9,9.92a253.56,253.56,0,0,0-22.1-32Q450.68,107.85,455.91,116Z"/><circle class="cls-3" cx="253" cy="253" r="253"/><path class="cls-2" d="M493.17,298q-6.6-9.54-19.2-9.54-12.36,0-19.08,9.6t-6.72,29q0,19.68,6.6,29.28T474,366a28.14,28.14,0,0,0,5.7-.56,251.17,251.17,0,0,0,19.07-52.14Q497.17,303.85,493.17,298Zm-9.9,48.6q-3.18,6.66-9.3,6.66t-9.24-6.66q-3.24-6.66-3.24-19.5t3.24-19.38q3.24-6.66,9.24-6.66t9.3,6.66q3.18,6.66,3.18,19.38T483.27,346.65Z"/><path class="cls-2" d="M389.37,408.51q-11.64,0-18.06,10t-6.42,28.74q0,18.72,6.42,28.74l.33.49q4.2-2.23,8.3-4.61a19.82,19.82,0,0,1-1.85-3.49,38.15,38.15,0,0,1-2.4-9.54,93.52,93.52,0,0,1,0-23.16,38.2,38.2,0,0,1,2.4-9.54,16.94,16.94,0,0,1,4.44-6.48,10.95,10.95,0,0,1,13.68,0,17,17,0,0,1,4.44,6.48,38.2,38.2,0,0,1,2.4,9.54,88.58,88.58,0,0,1,.72,11.58,91.5,91.5,0,0,1-.45,9.24q5.37-4,10.52-8.21c0-.34,0-.68,0-1q0-18.72-6.36-28.74T389.37,408.51Z"/><path class="cls-4" d="M672.18,93.38a54.39,54.39,0,0,1,17.37,2.52A34,34,0,0,1,702,103a28.81,28.81,0,0,1,7.38,10.89,38.75,38.75,0,0,1,2.43,14q0,17.46-10.26,26.91t-30.78,9.45h-13v41.58H643V96.08q3.24-.72,7.11-1.26t7.74-.9q3.87-.36,7.56-.45T672.18,93.38Zm1.08,12.78q-4.68,0-9,.09a49.53,49.53,0,0,0-6.48.45v45H670q13.5,0,20.07-5.4t6.57-17.82Q696.66,106.17,673.26,106.16Z"/><path class="cls-4" d="M739.14,205.88v-79a113.57,113.57,0,0,1,37.08-6.3q5.76,0,11,.45a85.27,85.27,0,0,1,11.52,1.89L796,136A61.33,61.33,0,0,0,785.85,134a95.92,95.92,0,0,0-9.63-.45,85.47,85.47,0,0,0-22.32,3.06v69.3Z"/><path class="cls-4" d="M892.68,164.13A54.2,54.2,0,0,1,889.89,182a41.27,41.27,0,0,1-7.83,13.77A34.69,34.69,0,0,1,870,204.71a37,37,0,0,1-15.3,3.15,35.92,35.92,0,0,1-15-3.15,34.88,34.88,0,0,1-12-8.91A41.17,41.17,0,0,1,819.87,182a54.13,54.13,0,0,1-2.79-17.91,55,55,0,0,1,2.79-18,40,40,0,0,1,7.83-13.77,35.46,35.46,0,0,1,12-8.82,35.91,35.91,0,0,1,15-3.15,37,37,0,0,1,15.3,3.15,35.26,35.26,0,0,1,12.06,8.82,40.14,40.14,0,0,1,7.83,13.77A55,55,0,0,1,892.68,164.13Zm-15.3,0q0-14.22-6.12-22.41a19.6,19.6,0,0,0-16.56-8.19,19.19,19.19,0,0,0-16.29,8.19q-6,8.19-6,22.41,0,14,6,22.23a19.18,19.18,0,0,0,16.29,8.19,19.59,19.59,0,0,0,16.56-8.19Q877.38,178.17,877.38,164.13Z"/><path class="cls-4" d="M920.4,134.78V122.36H969V205a39.32,39.32,0,0,1-2.43,14.67,27,27,0,0,1-6.48,9.81,23.68,23.68,0,0,1-9.36,5.4,38.38,38.38,0,0,1-11.25,1.62A67.58,67.58,0,0,1,925.71,235a53.36,53.36,0,0,1-13-4.5l4.5-12.6a60.66,60.66,0,0,0,10,3.69,39.26,39.26,0,0,0,10.53,1.53,18.62,18.62,0,0,0,11.88-3.69q4.68-3.69,4.68-14.31V134.78Zm34.92-25.38a11.38,11.38,0,0,1-8.1-3.24,11.56,11.56,0,0,1-3.42-8.82,11.57,11.57,0,0,1,3.42-8.82,11.86,11.86,0,0,1,16.29,0,11.74,11.74,0,0,1,3.33,8.82,11.74,11.74,0,0,1-3.33,8.82A11.29,11.29,0,0,1,955.32,109.4Z"/><path class="cls-4" d="M1036.5,120.38q16.92,0,26.1,10.53t9.18,32v5.22H1012q.9,13,8.55,19.71t21.51,6.75a62.17,62.17,0,0,0,13.5-1.26,39,39,0,0,0,8.46-2.7l2,12.6a44.24,44.24,0,0,1-9.72,3.06,70.68,70.68,0,0,1-15.84,1.62,50.17,50.17,0,0,1-19-3.33,37.79,37.79,0,0,1-13.59-9.09,37.2,37.2,0,0,1-8.1-13.77,54,54,0,0,1-2.7-17.37,50.68,50.68,0,0,1,3.42-19.44,39.94,39.94,0,0,1,9-13.68,37.14,37.14,0,0,1,12.6-8.1A39.79,39.79,0,0,1,1036.5,120.38ZM1056.66,156q0-10.62-5.58-16.83T1036.32,133a22,22,0,0,0-9.45,2,23.78,23.78,0,0,0-7.29,5.22,25.36,25.36,0,0,0-4.86,7.38,30.66,30.66,0,0,0-2.34,8.46Z"/><path class="cls-4" d="M1088.7,164.3a48.93,48.93,0,0,1,3.6-19.62,37.24,37.24,0,0,1,9.9-13.68,41,41,0,0,1,14.67-8,59.91,59.91,0,0,1,17.91-2.61,91.18,91.18,0,0,1,12.15.81,77,77,0,0,1,12.87,3l-3.42,12.78a51.21,51.21,0,0,0-10.89-2.79,79.29,79.29,0,0,0-10-.63,42.82,42.82,0,0,0-12.24,1.71,26.44,26.44,0,0,0-10,5.4,26.15,26.15,0,0,0-6.75,9.54A35.61,35.61,0,0,0,1104,164.3a35.54,35.54,0,0,0,2.34,13.59,24.63,24.63,0,0,0,6.57,9.36,27.21,27.21,0,0,0,10.17,5.49,45.17,45.17,0,0,0,13.14,1.8,93.59,93.59,0,0,0,11.07-.63,56.74,56.74,0,0,0,11.61-2.79l2.16,12.42a64.75,64.75,0,0,1-12.78,3.33,93.39,93.39,0,0,1-14,1,58.1,58.1,0,0,1-18.45-2.79,40.46,40.46,0,0,1-14.4-8.19,36.18,36.18,0,0,1-9.36-13.59A50.1,50.1,0,0,1,1088.7,164.3Z"/><path class="cls-4" d="M1213.62,122.36h35.28v12.42h-35.28v38.88a47.62,47.62,0,0,0,.9,10.26,14.69,14.69,0,0,0,3,6.39,10.46,10.46,0,0,0,5.31,3.33,29.87,29.87,0,0,0,7.92.9,35.72,35.72,0,0,0,18-4l2.16,12.6q-2.52,1.08-8,2.88a44.18,44.18,0,0,1-13.59,1.8q-9.36,0-15.3-2.16a20,20,0,0,1-9.27-6.48,25.21,25.21,0,0,1-4.59-10.71,77.39,77.39,0,0,1-1.26-14.85V134.78h-17.64V122.36h17.64V99l14.76-2.52Z"/><path class="cls-4" d="M666.6,422.79q-2.7,0-6.3-.18t-7.2-.45q-3.6-.27-7.2-.81a57.92,57.92,0,0,1-6.3-1.26v-108a59.54,59.54,0,0,1,6.21-1.26q3.51-.54,7.2-.81t7.2-.45q3.51-.18,6.39-.18a79,79,0,0,1,15.48,1.44,36,36,0,0,1,12.51,4.86,23.93,23.93,0,0,1,8.28,9q3,5.58,3,13.86a23.54,23.54,0,0,1-1.26,7.65,28.18,28.18,0,0,1-8.73,12.6,22.12,22.12,0,0,1-6.39,3.69,32,32,0,0,1,15.39,9.27q6.21,6.75,6.21,17.55,0,16.56-10.62,25T666.6,422.79Zm-12.24-65.16h11.7a45.69,45.69,0,0,0,9-.9,28.13,28.13,0,0,0,8.1-2.88,15.56,15.56,0,0,0,5.76-5.4,15.89,15.89,0,0,0,2.16-8.64,16.28,16.28,0,0,0-2-8.28,16.66,16.66,0,0,0-5.22-5.58,21.38,21.38,0,0,0-7.47-3.06,42.77,42.77,0,0,0-8.91-.9q-4.68,0-8.19.09a26.36,26.36,0,0,0-4.95.45Zm0,12.24v39.78a24.75,24.75,0,0,0,4,.45q3.69.27,9.27.27a61.76,61.76,0,0,0,10.71-.9,25.7,25.7,0,0,0,9.09-3.33,19.16,19.16,0,0,0,6.39-6.39,19.37,19.37,0,0,0,2.43-10.26,18,18,0,0,0-2.25-9.36,17.36,17.36,0,0,0-5.94-6,26.51,26.51,0,0,0-8.55-3.24,50.52,50.52,0,0,0-10.08-1Z"/><path class="cls-4" d="M739.14,421.89v-79a113.58,113.58,0,0,1,37.08-6.3q5.76,0,11,.45a85.2,85.2,0,0,1,11.52,1.89L796,352A61.28,61.28,0,0,0,785.85,350a95.61,95.61,0,0,0-9.63-.45,85.47,85.47,0,0,0-22.32,3.06v69.3Z"/><path class="cls-4" d="M843.72,350.79H819.6V338.37h38.88v51.3q0,12.42,3.42,16.65t10.26,4.23a35,35,0,0,0,9.63-1.26,32,32,0,0,0,6.93-2.7l2.16,12.6q-1.08.54-3.06,1.35a41.21,41.21,0,0,1-4.59,1.53q-2.61.72-5.76,1.26a38.92,38.92,0,0,1-6.57.54,34.58,34.58,0,0,1-13.14-2.16,19.2,19.2,0,0,1-8.37-6.48A26.67,26.67,0,0,1,845,404.51a77.38,77.38,0,0,1-1.26-14.85Zm3.78-25.38a11.38,11.38,0,0,1-8.1-3.24,13.08,13.08,0,0,1,0-17.64,11.86,11.86,0,0,1,16.29,0,13.35,13.35,0,0,1,0,17.64A11.29,11.29,0,0,1,847.5,325.4Z"/><path class="cls-4" d="M962.16,414.15a42.26,42.26,0,0,1-19.8,4.68,38.42,38.42,0,0,1-13.77-2.43A30.22,30.22,0,0,1,917.43,409a35.23,35.23,0,0,1-7.56-12.6,52.76,52.76,0,0,1-2.79-18.09,51.85,51.85,0,0,1,2.61-16.83,38.28,38.28,0,0,1,7.56-13.23,34.47,34.47,0,0,1,12.15-8.73,40.5,40.5,0,0,1,16.38-3.15,95.8,95.8,0,0,1,18.45,1.53q7.65,1.53,12.87,3V415.4q0,19.44-9.81,28.08t-29.61,8.64A78.36,78.36,0,0,1,923,450.87a79.35,79.35,0,0,1-11.61-3.06l2.7-13.14a58.17,58.17,0,0,0,10.71,3.24A64.9,64.9,0,0,0,938,439.16q13,0,18.54-5.22T962.16,417Zm0-62.64a41.37,41.37,0,0,0-5.94-1.35,65.49,65.49,0,0,0-10.26-.63q-11.52,0-17.55,7.92t-6,21.06a39.16,39.16,0,0,0,1.71,12.33,23.85,23.85,0,0,0,4.68,8.46,18.09,18.09,0,0,0,6.75,4.86,21.36,21.36,0,0,0,8.1,1.53,33.66,33.66,0,0,0,10.53-1.62,30.3,30.3,0,0,0,8-3.78Z"/><path class="cls-4" d="M1002.66,421.89V299.66l14.94-2.52v42.48a41.69,41.69,0,0,1,8.1-2.25,49.61,49.61,0,0,1,8.82-.81q9.54,0,15.93,2.79a24.88,24.88,0,0,1,10.17,7.83,31.73,31.73,0,0,1,5.4,12.06,68.89,68.89,0,0,1,1.62,15.48v47.16h-14.76V378q0-15.48-4.32-21.87t-15.48-6.39a41.58,41.58,0,0,0-9.09,1,35.89,35.89,0,0,0-6.39,1.89v69.3Z"/><path class="cls-4" d="M1123.62,338.37h35.28v12.42h-35.28v38.88a47.61,47.61,0,0,0,.9,10.26,14.7,14.7,0,0,0,3,6.39,10.47,10.47,0,0,0,5.31,3.33,29.91,29.91,0,0,0,7.92.9,35.71,35.71,0,0,0,18-4l2.16,12.6q-2.52,1.08-8,2.88a44.21,44.21,0,0,1-13.59,1.8q-9.36,0-15.3-2.16a20,20,0,0,1-9.27-6.48,25.22,25.22,0,0,1-4.59-10.71,77.38,77.38,0,0,1-1.26-14.85V350.79h-17.64V338.37h17.64V315l14.76-2.52Z"/><path class="cls-4" d="M1302,411.44q11.34,0,17.28-4.32t5.94-13a17.35,17.35,0,0,0-2.16-8.91,22.74,22.74,0,0,0-5.76-6.48,41.67,41.67,0,0,0-8.1-4.86q-4.5-2.07-9.18-3.87a96.25,96.25,0,0,1-10.35-4.86,43.14,43.14,0,0,1-8.82-6.3,26.79,26.79,0,0,1-6.12-8.46,27.18,27.18,0,0,1-2.25-11.52q0-14.58,9.18-22.77t25.56-8.19a63,63,0,0,1,8.91.63q4.41.63,8.19,1.53a43.18,43.18,0,0,1,6.75,2.16,26.62,26.62,0,0,1,4.77,2.52l-4.68,12.42a53.42,53.42,0,0,0-9.9-4.32,43.07,43.07,0,0,0-14-2.16,24.32,24.32,0,0,0-14,4q-5.94,4.05-5.94,12.15a16.76,16.76,0,0,0,1.71,7.92,18.32,18.32,0,0,0,4.68,5.67,37,37,0,0,0,6.93,4.41q4,2,8.64,4,6.84,2.88,12.51,5.76a39.13,39.13,0,0,1,9.72,6.84,28,28,0,0,1,6.3,9.36A34.19,34.19,0,0,1,1340,394q0,14.58-9.81,22.41T1302,424.23a72.7,72.7,0,0,1-11.16-.81,65,65,0,0,1-9.27-2.07q-4.05-1.26-7.11-2.52a27.63,27.63,0,0,1-4.68-2.34l4.5-12.24a83.54,83.54,0,0,0,10.62,4.59A49.23,49.23,0,0,0,1302,411.44Z"/><path class="cls-4" d="M1427.1,419.55q-4.86,1.26-12.87,2.7a107.7,107.7,0,0,1-18.81,1.44q-9.54,0-15.84-2.79a26,26,0,0,1-10.26-7.92,31,31,0,0,1-5.58-12.15,68.87,68.87,0,0,1-1.62-15.48v-47h14.76V382.1q0,15.48,4.59,22t15.39,6.48q2.34,0,4.77-.18t4.59-.45q2.16-.27,3.78-.54a17.39,17.39,0,0,0,2.16-.45V338.37h14.94Z"/><path class="cls-4" d="M1452.66,340.71a155.13,155.13,0,0,1,16.11-3.06,112.69,112.69,0,0,1,15-1.08q16.74,0,25.29,8.64t8.55,27.72v49h-14.76V375.63a49.15,49.15,0,0,0-1.44-13.14,19,19,0,0,0-4-7.83,13.77,13.77,0,0,0-6.3-3.87,28.39,28.39,0,0,0-8-1.08,69.69,69.69,0,0,0-7.65.45q-4.05.45-7.83,1.17v70.56h-14.94Z"/></g></g></svg>