<svg xmlns="http://www.w3.org/2000/svg" xmlns:xlink="http://www.w3.org/1999/xlink" viewBox="0 0 1801.56 506"><defs><style>.cls-1{fill:url(#linear-gradient);}.cls-2{fill:#fff;}.cls-3{fill:url(#linear-gradient-2);}.cls-4{fill:#f9951c;}</style><linearGradient id="linear-gradient" x1="402.53" y1="470.02" x2="110.05" y2="45.54" gradientUnits="userSpaceOnUse"><stop offset="0" stop-color="#fdcf18"/><stop offset="1" stop-color="#f9951c"/></linearGradient><linearGradient id="linear-gradient-2" x1="252.45" y1="288.38" x2="256.95" y2="-1.11" gradientUnits="userSpaceOnUse"><stop offset="0" stop-color="#fdcf18" stop-opacity="0"/><stop offset="1" stop-color="#f9951c"/></linearGradient></defs><title>Asset 3</title><g id="Layer_2" data-name="Layer 2"><g id="Layer_2-2" data-name="Layer 2"><circle class="cls-1" cx="253" cy="253" r="253"/><path class="cls-2" d="M389.37,48.51q-11.64,0-18.06,10t-6.42,28.74q0,18.72,6.42,28.74t18.06,10q11.76,0,18.12-10t6.36-28.74q0-18.72-6.36-28.74T389.37,48.51Zm13.68,50.34a38.15,38.15,0,0,1-2.4,9.54,17,17,0,0,1-4.44,6.48,10.95,10.95,0,0,1-13.68,0,16.92,16.92,0,0,1-4.44-6.48,38.15,38.15,0,0,1-2.4-9.54,93.52,93.52,0,0,1,0-23.16,38.2,38.2,0,0,1,2.4-9.54,16.94,16.94,0,0,1,4.44-6.48,10.95,10.95,0,0,1,13.68,0,17,17,0,0,1,4.44,6.48,38.2,38.2,0,0,1,2.4,9.54,93.52,93.52,0,0,1,0,23.16Z"/><path class="cls-2" d="M389.61,78a6.14,6.14,0,0,0-5,2.4A8.59,8.59,0,0,0,382.65,86a8.1,8.1,0,0,0,1.92,5.4,6.26,6.26,0,0,0,5,2.28,6,6,0,0,0,4.86-2.28,8.28,8.28,0,0,0,1.86-5.4,8.77,8.77,0,0,0-1.86-5.52A5.87,5.87,0,0,0,389.61,78Z"/><path class="cls-2" d="M390.93,170.19a49.21,49.21,0,0,1-10.68,9.3,69.17,69.17,0,0,1-11.88,6.06l3.12,7.44a42.91,42.91,0,0,0,4.68-1.8q2.4-1.08,4.62-2.28t4.08-2.46a28.65,28.65,0,0,0,3.18-2.46v52.08H372v8.4h40v-8.4h-14V170.19Z"/><path class="cls-2" d="M389.37,288.51q-11.64,0-18.06,10t-6.42,28.74q0,18.72,6.42,28.74t18.06,10q11.76,0,18.12-10t6.36-28.74q0-18.72-6.36-28.74T389.37,288.51Zm13.68,50.34a38.15,38.15,0,0,1-2.4,9.54,17,17,0,0,1-4.44,6.48,10.95,10.95,0,0,1-13.68,0,16.92,16.92,0,0,1-4.44-6.48,38.15,38.15,0,0,1-2.4-9.54,93.52,93.52,0,0,1,0-23.16,38.2,38.2,0,0,1,2.4-9.54,16.94,16.94,0,0,1,4.44-6.48,10.95,10.95,0,0,1,13.68,0,17,17,0,0,1,4.44,6.48,38.2,38.2,0,0,1,2.4,9.54,93.52,93.52,0,0,1,0,23.16Z"/><path class="cls-2" d="M389.61,318a6.14,6.14,0,0,0-5,2.4,8.59,8.59,0,0,0-1.92,5.52,8.1,8.1,0,0,0,1.92,5.4,6.26,6.26,0,0,0,5,2.28,6,6,0,0,0,4.86-2.28,8.28,8.28,0,0,0,1.86-5.4,8.77,8.77,0,0,0-1.86-5.52A5.87,5.87,0,0,0,389.61,318Z"/><path class="cls-2" d="M389.61,438a6.14,6.14,0,0,0-5,2.4,8.59,8.59,0,0,0-1.92,5.52,8.1,8.1,0,0,0,1.92,5.4,6.26,6.26,0,0,0,5,2.28,6,6,0,0,0,4.86-2.28,8.28,8.28,0,0,0,1.86-5.4,8.77,8.77,0,0,0-1.86-5.52A5.87,5.87,0,0,0,389.61,438Z"/><path class="cls-2" d="M52.55,170.19a49.21,49.21,0,0,1-10.68,9.3A69.17,69.17,0,0,1,30,185.55L33.11,193a42.83,42.83,0,0,0,4.68-1.8q2.4-1.08,4.62-2.28t4.08-2.46A28.65,28.65,0,0,0,49.67,184v52.08H33.59v8.4h40v-8.4h-14V170.19Z"/><path class="cls-2" d="M51,288.51q-11.64,0-18.06,10t-6.42,28.74q0,18.72,6.42,28.74T51,366q11.76,0,18.12-10t6.36-28.74q0-18.72-6.36-28.74T51,288.51Zm13.68,50.34a38.2,38.2,0,0,1-2.4,9.54,17,17,0,0,1-4.44,6.48,10,10,0,0,1-6.84,2.4,10,10,0,0,1-6.84-2.4,16.93,16.93,0,0,1-4.44-6.48,38.11,38.11,0,0,1-2.4-9.54,93.39,93.39,0,0,1,0-23.16,38.17,38.17,0,0,1,2.4-9.54,16.94,16.94,0,0,1,4.44-6.48,10.05,10.05,0,0,1,6.84-2.4,10.06,10.06,0,0,1,6.84,2.4,17,17,0,0,1,4.44,6.48,38.26,38.26,0,0,1,2.4,9.54,88.57,88.57,0,0,1,.72,11.58A88.57,88.57,0,0,1,64.67,338.85Z"/><path class="cls-2" d="M51.23,318a6.14,6.14,0,0,0-5,2.4,8.58,8.58,0,0,0-1.92,5.52,8.11,8.11,0,0,0,1.92,5.4,6.27,6.27,0,0,0,5,2.28,6,6,0,0,0,4.86-2.28,8.27,8.27,0,0,0,1.86-5.4,8.76,8.76,0,0,0-1.86-5.52A5.87,5.87,0,0,0,51.23,318Z"/><path class="cls-2" d="M135.83,93.63a6,6,0,0,0,4.86-2.28,8.28,8.28,0,0,0,1.86-5.4,8.77,8.77,0,0,0-1.86-5.52,5.87,5.87,0,0,0-4.86-2.4,6.14,6.14,0,0,0-5,2.4A8.59,8.59,0,0,0,128.87,86a8.11,8.11,0,0,0,1.92,5.4A6.26,6.26,0,0,0,135.83,93.63Z"/><path class="cls-2" d="M135.59,126q11.76,0,18.12-10t6.36-28.74q0-18.72-6.36-28.74t-18.12-10q-11.64,0-18.06,10t-6.42,28.74q0,18.72,6.42,28.74T135.59,126ZM121.91,75.69a38.16,38.16,0,0,1,2.4-9.54,16.94,16.94,0,0,1,4.44-6.48,10.95,10.95,0,0,1,13.68,0,17,17,0,0,1,4.44,6.48,38.25,38.25,0,0,1,2.4,9.54,93.52,93.52,0,0,1,0,23.16,38.19,38.19,0,0,1-2.4,9.54,17,17,0,0,1-4.44,6.48,10.95,10.95,0,0,1-13.68,0,16.92,16.92,0,0,1-4.44-6.48,38.11,38.11,0,0,1-2.4-9.54,93.52,93.52,0,0,1,0-23.16Z"/><path class="cls-2" d="M135.71,197.91a5.82,5.82,0,0,0-4.92,2.4A9.14,9.14,0,0,0,129,206a8.88,8.88,0,0,0,1.8,5.58,5.87,5.87,0,0,0,4.92,2.34,5.8,5.8,0,0,0,4.74-2.34,8.69,8.69,0,0,0,1.86-5.58,9,9,0,0,0-1.86-5.64A5.75,5.75,0,0,0,135.71,197.91Z"/><path class="cls-2" d="M135.59,168.51q-12.36,0-19.08,9.6t-6.72,29q0,19.68,6.6,29.28t19.2,9.6q12.6,0,19.2-9.6t6.6-29.28q0-19.56-6.6-29.1T135.59,168.51Zm9.3,58.14q-3.18,6.66-9.3,6.66t-9.24-6.66q-3.24-6.66-3.24-19.5t3.24-19.38q3.24-6.66,9.24-6.66t9.3,6.66q3.18,6.66,3.18,19.38T144.89,226.65Z"/><path class="cls-2" d="M287.38,116.07v8.4h40v-8.4h-14V50.19h-7a49.25,49.25,0,0,1-10.68,9.3,69.17,69.17,0,0,1-11.88,6.06L286.9,73a43.13,43.13,0,0,0,4.68-1.8q2.4-1.08,4.62-2.28t4.08-2.46A28.53,28.53,0,0,0,303.46,64v52.08Z"/><path class="cls-2" d="M304.78,246q11.76,0,18.12-10t6.36-28.74q0-18.72-6.36-28.74t-18.12-10q-11.64,0-18.06,10t-6.42,28.74q0,18.72,6.42,28.74T304.78,246ZM291.1,195.69a38.16,38.16,0,0,1,2.4-9.54,17,17,0,0,1,4.44-6.48,10.95,10.95,0,0,1,13.68,0,17,17,0,0,1,4.44,6.48,38.25,38.25,0,0,1,2.4,9.54,93.39,93.39,0,0,1,0,23.16,38.19,38.19,0,0,1-2.4,9.54,17,17,0,0,1-4.44,6.48,10.95,10.95,0,0,1-13.68,0,16.93,16.93,0,0,1-4.44-6.48,38.11,38.11,0,0,1-2.4-9.54,93.39,93.39,0,0,1,0-23.16Z"/><path class="cls-2" d="M305,213.63a6,6,0,0,0,4.86-2.28,8.27,8.27,0,0,0,1.86-5.4,8.77,8.77,0,0,0-1.86-5.52A5.87,5.87,0,0,0,305,198a6.14,6.14,0,0,0-5,2.4,8.58,8.58,0,0,0-1.92,5.52,8.1,8.1,0,0,0,1.92,5.4A6.26,6.26,0,0,0,305,213.63Z"/><path class="cls-2" d="M315.1,290.19H305a37.13,37.13,0,0,1-5.16,4.68,73.58,73.58,0,0,1-6.36,4.32q-3.36,2-6.72,3.72a65.47,65.47,0,0,1-6.24,2.76l4.8,12.24q3-1.08,7.32-2.94a41,41,0,0,0,7.68-4.26v41.52h-15.6v12.24h45.12V352.23H315.1Z"/><path class="cls-2" d="M202.78,116.07v8.4h40v-8.4h-14V50.19h-7a49.25,49.25,0,0,1-10.68,9.3,69.17,69.17,0,0,1-11.88,6.06L202.3,73a43.13,43.13,0,0,0,4.68-1.8q2.4-1.08,4.62-2.28t4.08-2.46A28.53,28.53,0,0,0,218.86,64v52.08Z"/><path class="cls-2" d="M220.18,246q11.76,0,18.12-10t6.36-28.74q0-18.72-6.36-28.74t-18.12-10q-11.64,0-18.06,10t-6.42,28.74q0,18.72,6.42,28.74T220.18,246ZM206.5,195.69a38.15,38.15,0,0,1,2.4-9.54,17,17,0,0,1,4.44-6.48,10.95,10.95,0,0,1,13.68,0,17,17,0,0,1,4.44,6.48,38.23,38.23,0,0,1,2.4,9.54,93.39,93.39,0,0,1,0,23.16,38.19,38.19,0,0,1-2.4,9.54,17,17,0,0,1-4.44,6.48,10.95,10.95,0,0,1-13.68,0,16.93,16.93,0,0,1-4.44-6.48,38.11,38.11,0,0,1-2.4-9.54,93.39,93.39,0,0,1,0-23.16Z"/><path class="cls-2" d="M220.42,213.63a6,6,0,0,0,4.86-2.28,8.27,8.27,0,0,0,1.86-5.4,8.76,8.76,0,0,0-1.86-5.52,5.87,5.87,0,0,0-4.86-2.4,6.14,6.14,0,0,0-5,2.4,8.58,8.58,0,0,0-1.92,5.52,8.11,8.11,0,0,0,1.92,5.4A6.26,6.26,0,0,0,220.42,213.63Z"/><path class="cls-2" d="M202.78,356.07v8.4h40v-8.4h-14V290.19h-7a49.18,49.18,0,0,1-10.68,9.3,69.17,69.17,0,0,1-11.88,6.06L202.3,313a42.62,42.62,0,0,0,4.68-1.8q2.4-1.08,4.62-2.28t4.08-2.46a28.53,28.53,0,0,0,3.18-2.46v52.08Z"/><path class="cls-2" d="M230.5,410.19H220.42a37.13,37.13,0,0,1-5.16,4.68,73.58,73.58,0,0,1-6.36,4.32q-3.36,2-6.72,3.72a65.47,65.47,0,0,1-6.24,2.76l4.8,12.24q3-1.08,7.32-2.94a41,41,0,0,0,7.68-4.26v41.52h-15.6v12.24h45.12V472.23H230.5Z"/><path class="cls-2" d="M456.57,236.07v8.4h40v-8.4h-14V170.19h-7a49.21,49.21,0,0,1-10.68,9.3A69.18,69.18,0,0,1,453,185.55l3.12,7.44a43,43,0,0,0,4.68-1.8q2.4-1.08,4.62-2.28a47.53,47.53,0,0,0,4.08-2.46,28.67,28.67,0,0,0,3.18-2.46v52.08Z"/><path class="cls-2" d="M474.09,317.91a5.81,5.81,0,0,0-4.92,2.4,9.14,9.14,0,0,0-1.8,5.64,8.87,8.87,0,0,0,1.8,5.58,5.87,5.87,0,0,0,4.92,2.34,5.8,5.8,0,0,0,4.74-2.34,8.7,8.7,0,0,0,1.86-5.58,9,9,0,0,0-1.86-5.64A5.75,5.75,0,0,0,474.09,317.91Z"/><path class="cls-2" d="M65.3,83.36c.05,1.28.09,2.58.09,3.91a88.55,88.55,0,0,1-.72,11.58,38.19,38.19,0,0,1-2.4,9.54,17,17,0,0,1-4.44,6.48,10,10,0,0,1-6.84,2.4,10,10,0,0,1-6.84-2.4,14.41,14.41,0,0,1-1.83-2q-2.67,4-5.19,8.1A20.06,20.06,0,0,0,51,126q11.76,0,18.12-10t6.36-28.74a82.84,82.84,0,0,0-1-13.51Q69.76,78.44,65.3,83.36Z"/><path class="cls-2" d="M74.12,431.92a39,39,0,0,0-5-13.39q-5.66-8.91-15.58-9.89A254.44,254.44,0,0,0,74.12,431.92Z"/><path class="cls-2" d="M455.91,116q5.81,9.07,15.9,9.92a253.56,253.56,0,0,0-22.1-32Q450.68,107.85,455.91,116Z"/><circle class="cls-3" cx="253" cy="253" r="253"/><path class="cls-2" d="M493.17,298q-6.6-9.54-19.2-9.54-12.36,0-19.08,9.6t-6.72,29q0,19.68,6.6,29.28T474,366a28.14,28.14,0,0,0,5.7-.56,251.17,251.17,0,0,0,19.07-52.14Q497.17,303.85,493.17,298Zm-9.9,48.6q-3.18,6.66-9.3,6.66t-9.24-6.66q-3.24-6.66-3.24-19.5t3.24-19.38q3.24-6.66,9.24-6.66t9.3,6.66q3.18,6.66,3.18,19.38T483.27,346.65Z"/><path class="cls-2" d="M389.37,408.51q-11.64,0-18.06,10t-6.42,28.74q0,18.72,6.42,28.74l.33.49q4.2-2.23,8.3-4.61a19.82,19.82,0,0,1-1.85-3.49,38.15,38.15,0,0,1-2.4-9.54,93.52,93.52,0,0,1,0-23.16,38.2,38.2,0,0,1,2.4-9.54,16.94,16.94,0,0,1,4.44-6.48,10.95,10.95,0,0,1,13.68,0,17,17,0,0,1,4.44,6.48,38.2,38.2,0,0,1,2.4,9.54,88.58,88.58,0,0,1,.72,11.58,91.5,91.5,0,0,1-.45,9.24q5.37-4,10.52-8.21c0-.34,0-.68,0-1q0-18.72-6.36-28.74T389.37,408.51Z"/><path class="cls-4" d="M666.84,335.38q-3.6,0-8.4-.24t-9.6-.6q-4.8-.36-9.6-1.08a77.26,77.26,0,0,1-8.4-1.68v-144a80.1,80.1,0,0,1,8.28-1.68q4.68-.72,9.6-1.08t9.6-.6q4.68-.24,8.52-.24a105.29,105.29,0,0,1,20.64,1.92,48,48,0,0,1,16.68,6.48,31.89,31.89,0,0,1,11,12q4,7.44,4,18.48a31.38,31.38,0,0,1-1.68,10.2,37.59,37.59,0,0,1-11.64,16.8,29.48,29.48,0,0,1-8.52,4.92,42.62,42.62,0,0,1,20.52,12.36q8.28,9,8.28,23.4,0,22.08-14.16,33.36T666.84,335.38ZM650.52,248.5h15.6a61,61,0,0,0,12-1.2,37.45,37.45,0,0,0,10.8-3.84,20.74,20.74,0,0,0,7.68-7.2,21.2,21.2,0,0,0,2.88-11.52,21.71,21.71,0,0,0-2.64-11,22.2,22.2,0,0,0-7-7.44,28.49,28.49,0,0,0-10-4.08A57.07,57.07,0,0,0,668,201q-6.24,0-10.92.12a35,35,0,0,0-6.6.6Zm0,16.32v53a33.06,33.06,0,0,0,5.4.6q4.92.36,12.36.36a82.38,82.38,0,0,0,14.28-1.2,34.23,34.23,0,0,0,12.12-4.44,25.53,25.53,0,0,0,8.52-8.52q3.24-5.28,3.24-13.68a24,24,0,0,0-3-12.48,23.16,23.16,0,0,0-7.92-8,35.31,35.31,0,0,0-11.4-4.32,67.35,67.35,0,0,0-13.44-1.32Z"/><path class="cls-4" d="M763.56,334.18V228.82a151.42,151.42,0,0,1,49.44-8.4q7.68,0,14.64.6A113.67,113.67,0,0,1,843,223.54l-3.6,17.52a81.7,81.7,0,0,0-13.56-2.76,127.81,127.81,0,0,0-12.84-.6,114,114,0,0,0-29.76,4.08v92.4Z"/><path class="cls-4" d="M903,239.38H870.84V222.82h51.84v68.4q0,16.56,4.56,22.2t13.68,5.64a46.58,46.58,0,0,0,12.84-1.68,42.63,42.63,0,0,0,9.24-3.6l2.88,16.8q-1.44.72-4.08,1.8a54.64,54.64,0,0,1-6.12,2q-3.48,1-7.68,1.68a51.77,51.77,0,0,1-8.76.72q-10.56,0-17.52-2.88a25.57,25.57,0,0,1-11.16-8.64A35.55,35.55,0,0,1,904.68,311a103.18,103.18,0,0,1-1.68-19.8Zm5-33.84a15.16,15.16,0,0,1-10.8-4.32q-4.56-4.32-4.56-11.76t4.56-11.76a15.81,15.81,0,0,1,21.72,0q4.44,4.32,4.44,11.76T919,201.22A15.06,15.06,0,0,1,908,205.54Z"/><path class="cls-4" d="M1060.92,323.86a56.38,56.38,0,0,1-26.4,6.24,51.19,51.19,0,0,1-18.36-3.24,40.28,40.28,0,0,1-14.88-9.84,47,47,0,0,1-10.08-16.8q-3.72-10.2-3.72-24.12A69.1,69.1,0,0,1,991,253.66,51,51,0,0,1,1001,236a46,46,0,0,1,16.2-11.64,54,54,0,0,1,21.84-4.2,127.68,127.68,0,0,1,24.6,2q10.2,2,17.16,4v99.36q0,25.92-13.08,37.44t-39.48,11.52a103.73,103.73,0,0,1-35-5.76l3.6-17.52a77.46,77.46,0,0,0,14.28,4.32,86.52,86.52,0,0,0,17.64,1.68q17.28,0,24.72-7t7.44-22.56Zm0-83.52a55.15,55.15,0,0,0-7.92-1.8,87.52,87.52,0,0,0-13.68-.84q-15.36,0-23.4,10.56t-8,28.08a52.2,52.2,0,0,0,2.28,16.44,31.78,31.78,0,0,0,6.24,11.28,24.11,24.11,0,0,0,9,6.48,28.49,28.49,0,0,0,10.8,2,44.91,44.91,0,0,0,14-2.16,40.4,40.4,0,0,0,10.68-5Z"/><path class="cls-4" d="M1114.92,334.18v-163l19.92-3.36V224.5a55.61,55.61,0,0,1,10.8-3,66.22,66.22,0,0,1,11.76-1.08q12.72,0,21.24,3.72a33.13,33.13,0,0,1,13.56,10.44,42.28,42.28,0,0,1,7.2,16.08,91.83,91.83,0,0,1,2.16,20.64v62.88h-19.68V275.62q0-20.64-5.76-29.16t-20.64-8.52a55.32,55.32,0,0,0-12.12,1.32,47.75,47.75,0,0,0-8.52,2.52v92.4Z"/><path class="cls-4" d="M1276.2,222.82h47v16.56h-47v51.84a63.52,63.52,0,0,0,1.2,13.68,19.58,19.58,0,0,0,4,8.52,14,14,0,0,0,7.08,4.44,39.86,39.86,0,0,0,10.56,1.2,47.61,47.61,0,0,0,24-5.28l2.88,16.8q-3.36,1.44-10.68,3.84a58.91,58.91,0,0,1-18.12,2.4q-12.48,0-20.4-2.88a26.61,26.61,0,0,1-12.36-8.64A33.6,33.6,0,0,1,1258.2,311a103.18,103.18,0,0,1-1.68-19.8V239.38H1233V222.82h23.52v-31.2l19.68-3.36Z"/><path class="cls-4" d="M1514,320.26q15.12,0,23-5.76t7.92-17.28a23.14,23.14,0,0,0-2.88-11.88,30.29,30.29,0,0,0-7.68-8.64,55.44,55.44,0,0,0-10.8-6.48q-6-2.76-12.24-5.16a128.33,128.33,0,0,1-13.8-6.48,57.58,57.58,0,0,1-11.76-8.4,35.72,35.72,0,0,1-8.16-11.28,36.26,36.26,0,0,1-3-15.36q0-19.44,12.24-30.36T1521,182.26a84.17,84.17,0,0,1,11.88.84q5.88.84,10.92,2a57.31,57.31,0,0,1,9,2.88,35.52,35.52,0,0,1,6.36,3.36l-6.24,16.56a71.38,71.38,0,0,0-13.2-5.76A57.48,57.48,0,0,0,1521,199.3a32.42,32.42,0,0,0-18.72,5.4q-7.92,5.4-7.92,16.2a22.35,22.35,0,0,0,2.28,10.56,24.45,24.45,0,0,0,6.24,7.56,49.38,49.38,0,0,0,9.24,5.88q5.28,2.64,11.52,5.28,9.12,3.84,16.68,7.68a52.27,52.27,0,0,1,13,9.12,37.38,37.38,0,0,1,8.4,12.48q3,7.2,3,17.52,0,19.44-13.08,29.88T1514,337.3a97.13,97.13,0,0,1-14.88-1.08,86.76,86.76,0,0,1-12.36-2.76q-5.4-1.68-9.48-3.36a36.89,36.89,0,0,1-6.24-3.12l6-16.32a111.55,111.55,0,0,0,14.16,6.12Q1500.6,320.26,1514,320.26Z"/><path class="cls-4" d="M1680.84,331.06q-6.48,1.68-17.16,3.6a143.63,143.63,0,0,1-25.08,1.92q-12.72,0-21.12-3.72a34.61,34.61,0,0,1-13.68-10.56,41.31,41.31,0,0,1-7.44-16.2,91.81,91.81,0,0,1-2.16-20.64V222.82h19.68v58.32q0,20.64,6.12,29.28t20.52,8.64q3.12,0,6.36-.24t6.12-.6q2.88-.36,5-.72a23,23,0,0,0,2.88-.6V222.82h19.92Z"/><path class="cls-4" d="M1714.92,225.94a207.57,207.57,0,0,1,21.48-4.08,150.57,150.57,0,0,1,20-1.44q22.32,0,33.72,11.52t11.4,37v65.28h-19.68V272.5q0-10.8-1.92-17.52a25.26,25.26,0,0,0-5.4-10.44,18.39,18.39,0,0,0-8.4-5.16,37.89,37.89,0,0,0-10.68-1.44,93.4,93.4,0,0,0-10.2.6q-5.4.6-10.44,1.56v94.08h-19.92Z"/></g></g></svg>