<svg xmlns="http://www.w3.org/2000/svg" xmlns:xlink="http://www.w3.org/1999/xlink" viewBox="0 0 506 506"><defs><style>.cls-1{fill:url(#linear-gradient);}.cls-2{fill:#fff;}.cls-3{fill:url(#linear-gradient-2);}</style><linearGradient id="linear-gradient" x1="402.53" y1="470.02" x2="110.05" y2="45.54" gradientUnits="userSpaceOnUse"><stop offset="0" stop-color="#fdcf18"/><stop offset="1" stop-color="#f9951c"/></linearGradient><linearGradient id="linear-gradient-2" x1="252.45" y1="288.38" x2="256.95" y2="-1.11" gradientUnits="userSpaceOnUse"><stop offset="0" stop-color="#fdcf18" stop-opacity="0"/><stop offset="1" stop-color="#f9951c"/></linearGradient></defs><title>Asset 2</title><g id="Layer_2" data-name="Layer 2"><g id="Layer_2-2" data-name="Layer 2"><circle class="cls-1" cx="253" cy="253" r="253"/><path class="cls-2" d="M389.37,48.51q-11.64,0-18.06,10t-6.42,28.74q0,18.72,6.42,28.74t18.06,10q11.76,0,18.12-10t6.36-28.74q0-18.72-6.36-28.74T389.37,48.51Zm13.68,50.34a38.15,38.15,0,0,1-2.4,9.54,17,17,0,0,1-4.44,6.48,10.95,10.95,0,0,1-13.68,0,16.92,16.92,0,0,1-4.44-6.48,38.15,38.15,0,0,1-2.4-9.54,93.52,93.52,0,0,1,0-23.16,38.2,38.2,0,0,1,2.4-9.54,16.94,16.94,0,0,1,4.44-6.48,10.95,10.95,0,0,1,13.68,0,17,17,0,0,1,4.44,6.48,38.2,38.2,0,0,1,2.4,9.54,93.52,93.52,0,0,1,0,23.16Z"/><path class="cls-2" d="M389.61,78a6.14,6.14,0,0,0-5,2.4A8.59,8.59,0,0,0,382.65,86a8.1,8.1,0,0,0,1.92,5.4,6.26,6.26,0,0,0,5,2.28,6,6,0,0,0,4.86-2.28,8.28,8.28,0,0,0,1.86-5.4,8.77,8.77,0,0,0-1.86-5.52A5.87,5.87,0,0,0,389.61,78Z"/><path class="cls-2" d="M390.93,170.19a49.21,49.21,0,0,1-10.68,9.3,69.17,69.17,0,0,1-11.88,6.06l3.12,7.44a42.91,42.91,0,0,0,4.68-1.8q2.4-1.08,4.62-2.28t4.08-2.46a28.65,28.65,0,0,0,3.18-2.46v52.08H372v8.4h40v-8.4h-14V170.19Z"/><path class="cls-2" d="M389.37,288.51q-11.64,0-18.06,10t-6.42,28.74q0,18.72,6.42,28.74t18.06,10q11.76,0,18.12-10t6.36-28.74q0-18.72-6.36-28.74T389.37,288.51Zm13.68,50.34a38.15,38.15,0,0,1-2.4,9.54,17,17,0,0,1-4.44,6.48,10.95,10.95,0,0,1-13.68,0,16.92,16.92,0,0,1-4.44-6.48,38.15,38.15,0,0,1-2.4-9.54,93.52,93.52,0,0,1,0-23.16,38.2,38.2,0,0,1,2.4-9.54,16.94,16.94,0,0,1,4.44-6.48,10.95,10.95,0,0,1,13.68,0,17,17,0,0,1,4.44,6.48,38.2,38.2,0,0,1,2.4,9.54,93.52,93.52,0,0,1,0,23.16Z"/><path class="cls-2" d="M389.61,318a6.14,6.14,0,0,0-5,2.4,8.59,8.59,0,0,0-1.92,5.52,8.1,8.1,0,0,0,1.92,5.4,6.26,6.26,0,0,0,5,2.28,6,6,0,0,0,4.86-2.28,8.28,8.28,0,0,0,1.86-5.4,8.77,8.77,0,0,0-1.86-5.52A5.87,5.87,0,0,0,389.61,318Z"/><path class="cls-2" d="M389.61,438a6.14,6.14,0,0,0-5,2.4,8.59,8.59,0,0,0-1.92,5.52,8.1,8.1,0,0,0,1.92,5.4,6.26,6.26,0,0,0,5,2.28,6,6,0,0,0,4.86-2.28,8.28,8.28,0,0,0,1.86-5.4,8.77,8.77,0,0,0-1.86-5.52A5.87,5.87,0,0,0,389.61,438Z"/><path class="cls-2" d="M52.55,170.19a49.21,49.21,0,0,1-10.68,9.3A69.17,69.17,0,0,1,30,185.55L33.11,193a42.83,42.83,0,0,0,4.68-1.8q2.4-1.08,4.62-2.28t4.08-2.46A28.65,28.65,0,0,0,49.67,184v52.08H33.59v8.4h40v-8.4h-14V170.19Z"/><path class="cls-2" d="M51,288.51q-11.64,0-18.06,10t-6.42,28.74q0,18.72,6.42,28.74T51,366q11.76,0,18.12-10t6.36-28.74q0-18.72-6.36-28.74T51,288.51Zm13.68,50.34a38.2,38.2,0,0,1-2.4,9.54,17,17,0,0,1-4.44,6.48,10,10,0,0,1-6.84,2.4,10,10,0,0,1-6.84-2.4,16.93,16.93,0,0,1-4.44-6.48,38.11,38.11,0,0,1-2.4-9.54,93.39,93.39,0,0,1,0-23.16,38.17,38.17,0,0,1,2.4-9.54,16.94,16.94,0,0,1,4.44-6.48,10.05,10.05,0,0,1,6.84-2.4,10.06,10.06,0,0,1,6.84,2.4,17,17,0,0,1,4.44,6.48,38.26,38.26,0,0,1,2.4,9.54,88.57,88.57,0,0,1,.72,11.58A88.57,88.57,0,0,1,64.67,338.85Z"/><path class="cls-2" d="M51.23,318a6.14,6.14,0,0,0-5,2.4,8.58,8.58,0,0,0-1.92,5.52,8.11,8.11,0,0,0,1.92,5.4,6.27,6.27,0,0,0,5,2.28,6,6,0,0,0,4.86-2.28,8.27,8.27,0,0,0,1.86-5.4,8.76,8.76,0,0,0-1.86-5.52A5.87,5.87,0,0,0,51.23,318Z"/><path class="cls-2" d="M135.83,93.63a6,6,0,0,0,4.86-2.28,8.28,8.28,0,0,0,1.86-5.4,8.77,8.77,0,0,0-1.86-5.52,5.87,5.87,0,0,0-4.86-2.4,6.14,6.14,0,0,0-5,2.4A8.59,8.59,0,0,0,128.87,86a8.11,8.11,0,0,0,1.92,5.4A6.26,6.26,0,0,0,135.83,93.63Z"/><path class="cls-2" d="M135.59,126q11.76,0,18.12-10t6.36-28.74q0-18.72-6.36-28.74t-18.12-10q-11.64,0-18.06,10t-6.42,28.74q0,18.72,6.42,28.74T135.59,126ZM121.91,75.69a38.16,38.16,0,0,1,2.4-9.54,16.94,16.94,0,0,1,4.44-6.48,10.95,10.95,0,0,1,13.68,0,17,17,0,0,1,4.44,6.48,38.25,38.25,0,0,1,2.4,9.54,93.52,93.52,0,0,1,0,23.16,38.19,38.19,0,0,1-2.4,9.54,17,17,0,0,1-4.44,6.48,10.95,10.95,0,0,1-13.68,0,16.92,16.92,0,0,1-4.44-6.48,38.11,38.11,0,0,1-2.4-9.54,93.52,93.52,0,0,1,0-23.16Z"/><path class="cls-2" d="M135.71,197.91a5.82,5.82,0,0,0-4.92,2.4A9.14,9.14,0,0,0,129,206a8.88,8.88,0,0,0,1.8,5.58,5.87,5.87,0,0,0,4.92,2.34,5.8,5.8,0,0,0,4.74-2.34,8.69,8.69,0,0,0,1.86-5.58,9,9,0,0,0-1.86-5.64A5.75,5.75,0,0,0,135.71,197.91Z"/><path class="cls-2" d="M135.59,168.51q-12.36,0-19.08,9.6t-6.72,29q0,19.68,6.6,29.28t19.2,9.6q12.6,0,19.2-9.6t6.6-29.28q0-19.56-6.6-29.1T135.59,168.51Zm9.3,58.14q-3.18,6.66-9.3,6.66t-9.24-6.66q-3.24-6.66-3.24-19.5t3.24-19.38q3.24-6.66,9.24-6.66t9.3,6.66q3.18,6.66,3.18,19.38T144.89,226.65Z"/><path class="cls-2" d="M287.38,116.07v8.4h40v-8.4h-14V50.19h-7a49.25,49.25,0,0,1-10.68,9.3,69.17,69.17,0,0,1-11.88,6.06L286.9,73a43.13,43.13,0,0,0,4.68-1.8q2.4-1.08,4.62-2.28t4.08-2.46A28.53,28.53,0,0,0,303.46,64v52.08Z"/><path class="cls-2" d="M304.78,246q11.76,0,18.12-10t6.36-28.74q0-18.72-6.36-28.74t-18.12-10q-11.64,0-18.06,10t-6.42,28.74q0,18.72,6.42,28.74T304.78,246ZM291.1,195.69a38.16,38.16,0,0,1,2.4-9.54,17,17,0,0,1,4.44-6.48,10.95,10.95,0,0,1,13.68,0,17,17,0,0,1,4.44,6.48,38.25,38.25,0,0,1,2.4,9.54,93.39,93.39,0,0,1,0,23.16,38.19,38.19,0,0,1-2.4,9.54,17,17,0,0,1-4.44,6.48,10.95,10.95,0,0,1-13.68,0,16.93,16.93,0,0,1-4.44-6.48,38.11,38.11,0,0,1-2.4-9.54,93.39,93.39,0,0,1,0-23.16Z"/><path class="cls-2" d="M305,213.63a6,6,0,0,0,4.86-2.28,8.27,8.27,0,0,0,1.86-5.4,8.77,8.77,0,0,0-1.86-5.52A5.87,5.87,0,0,0,305,198a6.14,6.14,0,0,0-5,2.4,8.58,8.58,0,0,0-1.92,5.52,8.1,8.1,0,0,0,1.92,5.4A6.26,6.26,0,0,0,305,213.63Z"/><path class="cls-2" d="M315.1,290.19H305a37.13,37.13,0,0,1-5.16,4.68,73.58,73.58,0,0,1-6.36,4.32q-3.36,2-6.72,3.72a65.47,65.47,0,0,1-6.24,2.76l4.8,12.24q3-1.08,7.32-2.94a41,41,0,0,0,7.68-4.26v41.52h-15.6v12.24h45.12V352.23H315.1Z"/><path class="cls-2" d="M202.78,116.07v8.4h40v-8.4h-14V50.19h-7a49.25,49.25,0,0,1-10.68,9.3,69.17,69.17,0,0,1-11.88,6.06L202.3,73a43.13,43.13,0,0,0,4.68-1.8q2.4-1.08,4.62-2.28t4.08-2.46A28.53,28.53,0,0,0,218.86,64v52.08Z"/><path class="cls-2" d="M220.18,246q11.76,0,18.12-10t6.36-28.74q0-18.72-6.36-28.74t-18.12-10q-11.64,0-18.06,10t-6.42,28.74q0,18.72,6.42,28.74T220.18,246ZM206.5,195.69a38.15,38.15,0,0,1,2.4-9.54,17,17,0,0,1,4.44-6.48,10.95,10.95,0,0,1,13.68,0,17,17,0,0,1,4.44,6.48,38.23,38.23,0,0,1,2.4,9.54,93.39,93.39,0,0,1,0,23.16,38.19,38.19,0,0,1-2.4,9.54,17,17,0,0,1-4.44,6.48,10.95,10.95,0,0,1-13.68,0,16.93,16.93,0,0,1-4.44-6.48,38.11,38.11,0,0,1-2.4-9.54,93.39,93.39,0,0,1,0-23.16Z"/><path class="cls-2" d="M220.42,213.63a6,6,0,0,0,4.86-2.28,8.27,8.27,0,0,0,1.86-5.4,8.76,8.76,0,0,0-1.86-5.52,5.87,5.87,0,0,0-4.86-2.4,6.14,6.14,0,0,0-5,2.4,8.58,8.58,0,0,0-1.92,5.52,8.11,8.11,0,0,0,1.92,5.4A6.26,6.26,0,0,0,220.42,213.63Z"/><path class="cls-2" d="M202.78,356.07v8.4h40v-8.4h-14V290.19h-7a49.18,49.18,0,0,1-10.68,9.3,69.17,69.17,0,0,1-11.88,6.06L202.3,313a42.62,42.62,0,0,0,4.68-1.8q2.4-1.08,4.62-2.28t4.08-2.46a28.53,28.53,0,0,0,3.18-2.46v52.08Z"/><path class="cls-2" d="M230.5,410.19H220.42a37.13,37.13,0,0,1-5.16,4.68,73.58,73.58,0,0,1-6.36,4.32q-3.36,2-6.72,3.72a65.47,65.47,0,0,1-6.24,2.76l4.8,12.24q3-1.08,7.32-2.94a41,41,0,0,0,7.68-4.26v41.52h-15.6v12.24h45.12V472.23H230.5Z"/><path class="cls-2" d="M456.57,236.07v8.4h40v-8.4h-14V170.19h-7a49.21,49.21,0,0,1-10.68,9.3A69.18,69.18,0,0,1,453,185.55l3.12,7.44a43,43,0,0,0,4.68-1.8q2.4-1.08,4.62-2.28a47.53,47.53,0,0,0,4.08-2.46,28.67,28.67,0,0,0,3.18-2.46v52.08Z"/><path class="cls-2" d="M474.09,317.91a5.81,5.81,0,0,0-4.92,2.4,9.14,9.14,0,0,0-1.8,5.64,8.87,8.87,0,0,0,1.8,5.58,5.87,5.87,0,0,0,4.92,2.34,5.8,5.8,0,0,0,4.74-2.34,8.7,8.7,0,0,0,1.86-5.58,9,9,0,0,0-1.86-5.64A5.75,5.75,0,0,0,474.09,317.91Z"/><path class="cls-2" d="M65.3,83.36c.05,1.28.09,2.58.09,3.91a88.55,88.55,0,0,1-.72,11.58,38.19,38.19,0,0,1-2.4,9.54,17,17,0,0,1-4.44,6.48,10,10,0,0,1-6.84,2.4,10,10,0,0,1-6.84-2.4,14.41,14.41,0,0,1-1.83-2q-2.67,4-5.19,8.1A20.06,20.06,0,0,0,51,126q11.76,0,18.12-10t6.36-28.74a82.84,82.84,0,0,0-1-13.51Q69.76,78.44,65.3,83.36Z"/><path class="cls-2" d="M74.12,431.92a39,39,0,0,0-5-13.39q-5.66-8.91-15.58-9.89A254.44,254.44,0,0,0,74.12,431.92Z"/><path class="cls-2" d="M455.91,116q5.81,9.07,15.9,9.92a253.56,253.56,0,0,0-22.1-32Q450.68,107.85,455.91,116Z"/><circle class="cls-3" cx="253" cy="253" r="253"/><path class="cls-2" d="M493.17,298q-6.6-9.54-19.2-9.54-12.36,0-19.08,9.6t-6.72,29q0,19.68,6.6,29.28T474,366a28.14,28.14,0,0,0,5.7-.56,251.17,251.17,0,0,0,19.07-52.14Q497.17,303.85,493.17,298Zm-9.9,48.6q-3.18,6.66-9.3,6.66t-9.24-6.66q-3.24-6.66-3.24-19.5t3.24-19.38q3.24-6.66,9.24-6.66t9.3,6.66q3.18,6.66,3.18,19.38T483.27,346.65Z"/><path class="cls-2" d="M389.37,408.51q-11.64,0-18.06,10t-6.42,28.74q0,18.72,6.42,28.74l.33.49q4.2-2.23,8.3-4.61a19.82,19.82,0,0,1-1.85-3.49,38.15,38.15,0,0,1-2.4-9.54,93.52,93.52,0,0,1,0-23.16,38.2,38.2,0,0,1,2.4-9.54,16.94,16.94,0,0,1,4.44-6.48,10.95,10.95,0,0,1,13.68,0,17,17,0,0,1,4.44,6.48,38.2,38.2,0,0,1,2.4,9.54,88.58,88.58,0,0,1,.72,11.58,91.5,91.5,0,0,1-.45,9.24q5.37-4,10.52-8.21c0-.34,0-.68,0-1q0-18.72-6.36-28.74T389.37,408.51Z"/></g></g></svg>