<?xml version="1.0"?><svg width="1000" height="750" xmlns="http://www.w3.org/2000/svg">
 <title>Graduation Hat Silhouette Red</title>
 <metadata id="metadata3974">image/svg+xml</metadata>
 <g>
  <title>Layer 1</title>
  <g id="layer1" transform="rotate(23.3053 440.332 466.446)" opacity="0.9">
   <path fill="#000000" fill-rule="nonzero" stroke="#d3d3d3" stroke-width="0.240526" stroke-miterlimit="4" id="rect3761-0" d="m216.240479,204.745514l452.050903,0l25.294373,342.341888c-3.220154,58.413574 -4.766968,60.30835 -28.545349,86.285095c-29.241394,25.15033 -64.669312,38.443359 -96.919922,47.929504c-80.906128,23.797546 -170.282593,23.637268 -278.138519,-28.790771c-35.151947,-16.001221 -50.822418,-86.190186 -48.447174,-115.022949l-25.294312,-332.742767z"/>
   <path fill="#000000" id="rect2830-2" d="m-58.144501,240.945007l488.060486,-155.141479l508.891998,142.21347l-491.03598,271.498016l-505.916504,-258.570007l0,0z"/>
   <path fill="#000000" fill-rule="nonzero" id="rect3614-4" d="m126.542191,567.174683l26.824875,-1.037415c15.16954,89.28479 42.87059,213.378296 34.431107,233.591125c-10.772644,33.30249 -61.615341,47.360535 -73.602745,9.375061c0.691887,-71.825745 14.370461,-146.306946 12.346764,-241.928772z"/>
   <path fill="#000000" id="path3605-7-8" d="m483.001526,217.878937c-17.66156,13.983154 -54.654419,-12.520264 -60.620575,-1.361313c-0.623596,1.169403 -0.007813,7.78624 0.085754,9.748062c14.56543,15.414429 42.675201,15.696594 59.797394,0.191864l0.737427,-8.578613l0,0l0,0l0,0l0,0l0,0z"/>
   <path fill="#000000" id="rect3617-6" d="m441.075989,217.242004l15.070984,6.465988c-76.005981,28.228012 -277.011963,56.524002 -314.185974,109.192001c-11.192001,16.178009 -0.537994,89.472992 -4.102997,134.072998l-17.671005,0.141998c2.429001,-43.612976 -5.268997,-108.451996 2.639,-133.53299c8.623009,-25.563995 44.316002,-58.845001 318.249992,-116.339996l0,0l0,0z"/>
   <rect fill="#000000" fill-rule="nonzero" transform="matrix(15.4356, -3.16666, 2.59865, 22.2595, 1.69276, -331.066)" y="37.744826" x="1.072732" height="3.280711" width="1.986819" id="rect3612-5"/>
   <path fill="#000000" id="rect3723-0" d="m479.288818,207.079346c55.814758,-26.775024 113.778442,-49.500916 182.287903,-47.994507c3.062744,-1.054474 8.246155,7.036972 -2.946167,7.465714c-60.374207,3.484726 -116.910889,27.344803 -174.554443,45.328323c-7.278381,3.557617 -9.211243,-2.856018 -4.787292,-4.79953z"/>
   <path fill="#000000" id="rect3723-1-9" d="m480.289307,225.462448c66.074829,20.679016 132.621521,47.032303 199.705872,105.422073c3.456543,1.532898 5.278442,13.611786 -5.956238,4.720947c-61.081055,-46.834991 -126.680359,-70.913177 -190.976318,-101.554932c-8.64325,-2.632935 -7.9375,-10.398621 -2.773315,-8.588089z"/>
   <path fill="#000000" id="rect3723-1-2-0" d="m441.848602,210.31192c-65.21582,-26.07431 -133.164307,-49.168854 -214.714661,-54.216705c-3.59671,-1.105743 -10.11554,4.769257 3.177826,6.123337c71.656342,8.222595 137.858002,32.076828 205.633026,51.422302c8.501343,3.451996 11.080475,-1.402344 5.903809,-3.328934z"/>
   <path fill="#000000" fill-rule="nonzero" d="m154.952454,489.950165a24.19989,35.043678 0 1 1 -48.399757,0a24.19989,35.043678 0 1 1 48.399757,0z" id="path3610-0"/>
   <path fill="#000000" id="path3605-6" d="m483.00177,217.87825c-13.592468,14.148422 -46.86618,13.675934 -60.788574,0c0,-9.974228 13.60791,-18.060028 30.394257,-18.060028c16.786469,0 30.394318,8.0858 30.394318,18.060028z"/>
   <path fill="#000000" id="rect3723-8-1" d="m491.157898,215.784424c55.81488,-26.775055 113.778503,-49.500977 182.287964,-47.994507c3.062622,-1.054718 8.246094,7.036957 -2.946167,7.465668c-60.374329,3.484711 -116.911011,27.344818 -174.554565,45.328323c-7.278198,3.557678 -9.211121,-2.856018 -4.787231,-4.799484z"/>
   <path fill="#000000" id="rect3723-8-8-3" d="m470.865967,232.563965c66.792114,21.159164 134.04541,48.025635 201.751526,107.102356c3.492859,1.560394 5.301758,13.71405 -6.039612,4.712799c-61.665039,-47.426697 -127.96637,-72.000641 -192.930481,-103.165848c-8.737122,-2.695496 -8.001038,-10.498428 -2.781433,-8.649307z"/>
   <path fill="#000000" id="rect3723-8-8-1-8" d="m215.354675,153.564514c67.529327,8.233444 135.944916,20.905457 207.238464,58.898376c3.565674,0.788315 6.268616,10.135193 -5.606232,4.476028c-64.450928,-29.577072 -131.753571,-40.562943 -198.233795,-56.911087c-8.828308,-1.019928 -8.690491,-7.26091 -3.398438,-6.463318z"/>
  </g>
 </g>
</svg>